<svg xmlns="http://www.w3.org/2000/svg" width="44.77" height="36" viewBox="0 0 44.77 36"><defs><style>.a{fill:#fff;}</style></defs><g transform="translate(0 -29.382)"><g transform="translate(0 29.382)"><g transform="translate(0 0)"><path class="a" d="M37.728,100.18l-.95-1.73a28.761,28.761,0,0,0-2.907,1.832l1.151,1.6A26.724,26.724,0,0,1,37.728,100.18Z" transform="translate(-28.816 -88.143)"/><path class="a" d="M77.924,83.233l-.51-1.907a28.577,28.577,0,0,0-3.259,1.086l.736,1.832A26.59,26.59,0,0,1,77.924,83.233Z" transform="translate(-63.089 -73.574)"/><path class="a" d="M208.734,87.408a28.536,28.536,0,0,0-3.162-1.347l-.663,1.859a26.447,26.447,0,0,1,2.942,1.254Z" transform="translate(-174.331 -77.603)"/><path class="a" d="M277.178,136.5l-1.453,1.335a26.822,26.822,0,0,1,2.019,2.482l1.6-1.151A28.494,28.494,0,0,0,277.178,136.5Z" transform="translate(-234.578 -120.518)"/><path class="a" d="M243.18,108.275a26.552,26.552,0,0,1,2.554,1.926l1.282-1.5a28.343,28.343,0,0,0-2.746-2.07Z" transform="translate(-206.89 -95.102)"/><path class="a" d="M0,127.726l1.5,1.282a26.559,26.559,0,0,1,2.222-2.3l-1.335-1.454A28.493,28.493,0,0,0,0,127.726Z" transform="translate(0 -110.946)"/><path class="a" d="M104.922,39.949h.991l1.2-1.824,3.867.027-1.73,5.964a.316.316,0,0,0,.315.316h1.591l3.323-6.163,3.05.1a1.487,1.487,0,1,0,0-2.969l-3.073.1-3.3-6.122h-1.592a.316.316,0,0,0-.315.316l1.718,5.922-3.876.034-1.182-1.789h-.991a.238.238,0,0,0-.238.238v5.608A.239.239,0,0,0,104.922,39.949Z" transform="translate(-89.061 -29.382)"/><path class="a" d="M48.615,148.086a17.691,17.691,0,0,0-3.926-.444,17.514,17.514,0,0,0-17.154,13.7,17.7,17.7,0,0,0-.427,4.65h1.975a15.717,15.717,0,0,1,.375-4.208c.646.167,3.534.969,3.442,1.9a6.442,6.442,0,0,0-.119,2.31H34.6c.249-.182.49-.268.725-.021l.021.021H49.68a8.982,8.982,0,0,1-3.852-5.947c-.238-.1.443-2.8-.618-3.125s-1.732-.064-3.237-.736-.943-1.61-.7-3.849a8.162,8.162,0,0,1,.659-2.483,15.754,15.754,0,0,1,6.24.154,15.644,15.644,0,0,1,12.161,15.7c-.129.094-.267.187-.412.281H62.3a17.609,17.609,0,0,0-13.684-17.908Z" transform="translate(-23.051 -129.994)"/></g></g></g></svg>