<svg xmlns="http://www.w3.org/2000/svg" width="32.666" height="24.807" viewBox="0 0 32.666 24.807"><defs><style>.a,.b{fill:#fff;}.c,.d{stroke:none;}.d{fill:#0065ff;}</style></defs><g transform="translate(1.2)"><path class="a" d="M2.439,6.13H13.984a2.439,2.439,0,0,1,2.439,2.442V15a2.439,2.439,0,0,1-2.439,2.444h-.846v2.135c0,1.013-.609,1.279-1.353.591L8.839,17.44h-6.4A2.439,2.439,0,0,1,0,15V8.572A2.439,2.439,0,0,1,2.439,6.13Z" transform="translate(15.043 -6.13)"/><g class="b" transform="translate(0 -1.791)"><path class="c" d="M 5.186338424682617 25.99824714660645 C 4.541808128356934 25.99824714660645 3.789148330688477 25.50033760070801 3.789148330688477 24.0970573425293 L 3.789148330688477 21.84409713745117 L 3.258938312530518 21.84409713745117 C 2.226698398590088 21.84409713745117 1.256648302078247 21.44171714782715 0.5274783372879028 20.7110767364502 C -0.2016916573047638 19.98043632507324 -0.6021116375923157 19.00958633422852 -0.6000216603279114 17.97734642028809 L -0.6000216603279114 9.393346786499023 C -0.6014116406440735 8.362406730651855 -0.2006716579198837 7.392147064208984 0.528398334980011 6.662096977233887 C 1.257468342781067 5.932046890258789 2.227188348770142 5.529996871948242 3.258938312530518 5.529996871948242 L 18.68686866760254 5.529996871948242 C 19.71861839294434 5.529996871948242 20.68833923339844 5.932046890258789 21.41740798950195 6.662096977233887 C 22.14646911621094 7.392147064208984 22.54720878601074 8.362406730651855 22.54582786560059 9.394146919250488 L 22.54582786560059 17.97855758666992 C 22.54790878295898 19.00810623168945 22.14846801757812 19.97798728942871 21.42107772827148 20.70832633972168 C 20.69368743896484 21.43865776062012 19.72542762756348 21.84201622009277 18.69465827941895 21.84409713745117 L 10.36957454681396 21.84409713745117 L 6.604988574981689 25.3274974822998 C 6.123758316040039 25.77260780334473 5.646488189697266 25.99824714660645 5.186338424682617 25.99824714660645 Z"/><path class="d" d="M 3.258937835693359 6.129997253417969 C 2.393838882446289 6.129997253417969 1.564249038696289 6.473957061767578 0.9529476165771484 7.086076736450195 C 0.3416481018066406 7.698196411132812 -0.001192092895507812 8.528257369995117 -2.09808349609375e-05 9.393346786499023 L -2.09808349609375e-05 17.97855758666992 C -0.001771926879882812 18.84402656555176 0.3408088684082031 19.67464828491211 0.9521675109863281 20.2872371673584 C 1.56353759765625 20.89983749389648 2.393457412719727 21.24409675598145 3.258937835693359 21.24409675598145 L 4.389148712158203 21.24409675598145 L 4.389148712158203 24.0970573425293 C 4.389148712158203 24.94210433959961 4.706274032592773 25.39824867248535 5.186336517333984 25.39824867248535 C 5.475500106811523 25.39824867248535 5.823772430419922 25.23276710510254 6.197488784790039 24.8870964050293 L 10.1345682144165 21.24409675598145 L 18.69344902038574 21.24409675598145 C 20.49332809448242 21.2404670715332 21.9494686126709 19.77842712402344 21.94582748413086 17.97855758666992 L 21.94582748413086 9.393346786499023 C 21.94698905944824 8.528257369995117 21.60414886474609 7.698196411132812 20.99284744262695 7.086076736450195 C 20.38154792785645 6.473957061767578 19.55195808410645 6.129997253417969 18.68686866760254 6.129997253417969 L 3.258937835693359 6.129997253417969 M 3.258937835693359 4.929996490478516 L 18.68686866760254 4.929996490478516 C 19.8790283203125 4.929996490478516 20.9995174407959 5.394567489624023 21.84194755554199 6.238117218017578 C 22.68436813354492 7.081666946411133 23.14742851257324 8.202787399291992 23.14582824707031 9.394956588745117 L 23.14582824707031 17.97855758666992 C 23.14823913574219 19.16715621948242 22.68668746948242 20.28783798217773 21.84619903564453 21.13172721862793 C 21.00570869445801 21.97561645507812 19.88689804077148 22.44169616699219 18.69586753845215 22.44409561157227 L 10.60459041595459 22.44409561157227 L 7.01248836517334 25.76788711547852 C 6.416728019714355 26.31892776489258 5.802377700805664 26.59824752807617 5.186338424682617 26.59824752807617 C 4.192228317260742 26.59824752807617 3.18914794921875 25.82485771179199 3.18914794921875 24.0970573425293 L 3.18914794921875 22.44356536865234 C 2.022542953491211 22.42579078674316 0.9288825988769531 21.96266937255859 0.1027889251708984 21.13491821289062 C -0.7397518157958984 20.29067611694336 -1.202430725097656 19.16886711120605 -1.200021743774414 17.97612762451172 L -1.200021743774414 9.393346786499023 C -1.201631546020508 8.202796936035156 -0.7385711669921875 7.081676483154297 0.1038475036621094 6.238117218017578 C 0.9462776184082031 5.394567489624023 2.066778182983398 4.929996490478516 3.258937835693359 4.929996490478516 Z"/></g></g></svg>