<svg xmlns="http://www.w3.org/2000/svg" width="12.195" height="16.423" viewBox="0 0 12.195 16.423"><defs><style>.a{fill:#6ac259;}</style></defs><path class="a" d="M22.938,67.633l-.846.276a1.167,1.167,0,0,1-.242.035.773.773,0,0,1-.691-.415l-.4-.795-.345-.035L18.74,70.276a.368.368,0,0,0,.4.518l1.209-.225a.359.359,0,0,1,.4.19l.6,1.088A.374.374,0,0,0,22,71.83l1.676-3.558c-.017-.017-.035-.017-.052-.035Z" transform="translate(-18.015 -55.61)"/><path class="a" d="M55.847,66.7l-.345.035-.4.795a.773.773,0,0,1-.691.415,1.166,1.166,0,0,1-.242-.035l-.846-.276-.674.57c-.017.017-.035.035-.052.035L54.276,71.8a.364.364,0,0,0,.656.017l.587-1.088a.412.412,0,0,1,.4-.19l1.209.225a.364.364,0,0,0,.4-.518Z" transform="translate(-46.053 -55.61)"/><path class="a" d="M26.843,8.719a.167.167,0,0,0,0-.242l-.726-.846a.188.188,0,0,1-.035-.19l.345-1.054a.189.189,0,0,0-.086-.225l-.985-.5a.2.2,0,0,1-.1-.155L25.168,4.4A.186.186,0,0,0,25,4.227l-1.123-.086a.2.2,0,0,1-.155-.1l-.5-.985a.171.171,0,0,0-.225-.086l-1.054.345a.24.24,0,0,1-.19-.035L20.9,2.552a.167.167,0,0,0-.242,0l-.829.726a.188.188,0,0,1-.19.035l-1.054-.345a.189.189,0,0,0-.225.086l-.5.985a.2.2,0,0,1-.155.1L16.6,4.227a.186.186,0,0,0-.173.173l-.086,1.106a.2.2,0,0,1-.1.155l-.985.5a.171.171,0,0,0-.086.225l.345,1.054a.24.24,0,0,1-.035.19l-.726.846a.167.167,0,0,0,0,.242l.726.846a.188.188,0,0,1,.035.19l-.345,1.054a.189.189,0,0,0,.086.225l.985.5a.2.2,0,0,1,.1.155l.086,1.106a.186.186,0,0,0,.173.173l1.106.086a.2.2,0,0,1,.155.1l.5.985a.171.171,0,0,0,.225.086l1.054-.345a.24.24,0,0,1,.19.035l.846.726a.167.167,0,0,0,.242,0l.846-.726a.188.188,0,0,1,.19-.035l1.054.345a.189.189,0,0,0,.225-.086l.5-.985a.2.2,0,0,1,.155-.1L25,12.968a.186.186,0,0,0,.173-.173l.086-1.106a.2.2,0,0,1,.1-.155l.985-.5a.171.171,0,0,0,.086-.225l-.345-1.054a.24.24,0,0,1,.035-.19ZM20.8,12.709A4.111,4.111,0,1,1,24.909,8.6,4.121,4.121,0,0,1,20.8,12.709Z" transform="translate(-14.7 -2.5)"/><path class="a" d="M33.124,17.4a3.524,3.524,0,1,0,3.524,3.524A3.528,3.528,0,0,0,33.124,17.4Zm2,2.954L32.9,22.582a.188.188,0,0,1-.259,0l-1.52-1.52a.188.188,0,0,1,0-.259l.639-.639a.188.188,0,0,1,.259,0l.76.76,1.468-1.468a.188.188,0,0,1,.259,0l.639.639A.174.174,0,0,1,35.128,20.354Z" transform="translate(-27.026 -14.826)"/></svg>