<svg xmlns="http://www.w3.org/2000/svg" width="16.008" height="20" viewBox="0 0 16.008 20"><defs><style>.a{fill:#0065ff;}</style></defs><g transform="translate(-48.8)"><path class="a" d="M64.8,17.288l-1.145-12.9a.551.551,0,0,0-.548-.5H60.755a3.951,3.951,0,0,0-7.9,0H50.5a.548.548,0,0,0-.548.5L48.8,17.288c0,.016,0,.033,0,.049A2.85,2.85,0,0,0,51.8,20h10a2.85,2.85,0,0,0,3-2.663A.2.2,0,0,0,64.8,17.288ZM56.8,1.1A2.85,2.85,0,0,1,59.651,3.89H53.957A2.85,2.85,0,0,1,56.8,1.1Zm5,17.791h-10a1.762,1.762,0,0,1-1.9-1.534L51,5h1.849V6.675a.552.552,0,1,0,1.1,0V5h5.7V6.675a.552.552,0,1,0,1.1,0V5H62.6l1.1,12.364A1.765,1.765,0,0,1,61.806,18.9Z"/></g></svg>