<svg xmlns="http://www.w3.org/2000/svg" width="20.386" height="36" viewBox="0 0 20.386 36"><defs><style>.a{fill:#fff;}</style></defs><g transform="translate(-5.951)"><path class="a" d="M23.717,0H8.571a2.62,2.62,0,0,0-2.62,2.622V33.38A2.619,2.619,0,0,0,8.571,36H23.717a2.62,2.62,0,0,0,2.62-2.62V2.622A2.622,2.622,0,0,0,23.717,0ZM12.407,1.593h7.478c.189,0,.342.282.342.631s-.153.632-.342.632H12.407c-.19,0-.341-.283-.341-.632S12.216,1.593,12.407,1.593Zm3.739,31.819a1.673,1.673,0,1,1,1.67-1.674A1.675,1.675,0,0,1,16.145,33.412Zm8.229-5.732H7.915V4.425h16.46V27.68Z" transform="translate(0)"/></g></svg>