<svg xmlns="http://www.w3.org/2000/svg" width="15.294" height="20" viewBox="0 0 15.294 20"><defs><style>.a{fill:#0065ff;}</style></defs><g transform="translate(-2.353)"><path class="a" d="M67.881,0a7.656,7.656,0,0,0-7.647,7.647v7.059a1.765,1.765,0,1,0,3.53,0V8.824A1.767,1.767,0,0,0,62,7.059a1.745,1.745,0,0,0-.564.1,6.464,6.464,0,0,1,12.892,0,1.733,1.733,0,0,0-.563-.1A1.767,1.767,0,0,0,72,8.824v5.882a1.767,1.767,0,0,0,1.765,1.765,1.744,1.744,0,0,0,.588-.108v.7a.589.589,0,0,1-.588.588H69.538a1.765,1.765,0,1,0,0,1.176h4.226a1.767,1.767,0,0,0,1.765-1.765V7.647A7.656,7.656,0,0,0,67.881,0Zm0,0" transform="translate(-57.881)"/></g></svg>