<svg xmlns="http://www.w3.org/2000/svg" width="73.44" height="66.555" viewBox="0 0 73.44 66.555"><defs><style>.a{fill:#707070;}</style></defs><g transform="translate(0 0)"><g transform="translate(0 61.965)"><path class="a" d="M72.867,455.956H.575a.574.574,0,1,0,0,1.148H72.867a.574.574,0,1,0,0-1.148Z" transform="translate(-0.001 -455.956)"/></g><g transform="translate(12.623 41.31)"><path class="a" d="M98.893,311.969H88.566a.573.573,0,0,0-.574.574V330.9a.574.574,0,0,0,1.148,0V313.117h9.754a.574.574,0,0,0,0-1.148Z" transform="translate(-87.992 -311.969)"/></g><g transform="translate(25.245 34.425)"><path class="a" d="M198.359,263.976h-21.8a.573.573,0,0,0-.574.574v25.245a.574.574,0,1,0,1.148,0V265.123h20.655v24.671a.574.574,0,1,0,1.148,0V264.55A.573.573,0,0,0,198.359,263.976Z" transform="translate(-175.983 -263.976)"/></g><g transform="translate(17.213 41.31)"><path class="a" d="M120.563,311.969a.573.573,0,0,0-.574.574V330.9a.574.574,0,1,0,1.147,0v-18.36A.573.573,0,0,0,120.563,311.969Z" transform="translate(-119.989 -311.969)"/></g><g transform="translate(19.508 44.752)"><path class="a" d="M138.282,335.968a2.3,2.3,0,0,0-2.3,2.295v2.869a.574.574,0,0,0,.574.574H140a.573.573,0,0,0,.574-.574v-2.869A2.3,2.3,0,0,0,138.282,335.968Zm1.147,4.59h-2.295v-2.3a1.147,1.147,0,0,1,2.295,0Z" transform="translate(-135.987 -335.968)"/></g><g transform="translate(19.508 52.785)"><path class="a" d="M138.282,391.962a2.3,2.3,0,0,0-2.3,2.3v2.869a.573.573,0,0,0,.574.573H140a.573.573,0,0,0,.574-.573v-2.869A2.3,2.3,0,0,0,138.282,391.962Zm1.147,4.59h-2.295v-2.295a1.147,1.147,0,1,1,2.295,0Z" transform="translate(-135.987 -391.962)"/></g><g transform="translate(13.749 52.875)"><path class="a" d="M96.6,392.621a.574.574,0,0,0-.368,1.087,1.146,1.146,0,0,1,.779,1.087v2.295h-.574a.574.574,0,1,0,0,1.147h1.148a.573.573,0,0,0,.574-.573v-2.869A2.293,2.293,0,0,0,96.6,392.621Z" transform="translate(-95.842 -392.59)"/></g><g transform="translate(13.749 44.843)"><path class="a" d="M96.6,336.632a.574.574,0,0,0-.368,1.087,1.146,1.146,0,0,1,.779,1.087v2.3h-.574a.574.574,0,1,0,0,1.147h1.148a.573.573,0,0,0,.574-.574v-2.869A2.293,2.293,0,0,0,96.6,336.632Z" transform="translate(-95.842 -336.602)"/></g><g transform="translate(49.343 41.31)"><path class="a" d="M354.868,311.969H344.54a.574.574,0,0,0,0,1.148h9.754V330.9a.574.574,0,1,0,1.147,0v-18.36A.573.573,0,0,0,354.868,311.969Z" transform="translate(-343.966 -311.969)"/></g><g transform="translate(55.08 41.31)"><path class="a" d="M384.536,311.969a.573.573,0,0,0-.574.574V330.9a.574.574,0,0,0,1.148,0v-18.36A.573.573,0,0,0,384.536,311.969Z" transform="translate(-383.962 -311.969)"/></g><g transform="translate(49.343 44.752)"><path class="a" d="M346.261,335.968a2.3,2.3,0,0,0-2.3,2.295v2.869a.573.573,0,0,0,.574.574h3.443a.573.573,0,0,0,.574-.574v-2.869A2.3,2.3,0,0,0,346.261,335.968Zm1.147,4.59h-2.295v-2.3a1.147,1.147,0,0,1,2.295,0Z" transform="translate(-343.966 -335.968)"/></g><g transform="translate(49.343 52.785)"><path class="a" d="M346.261,391.962a2.3,2.3,0,0,0-2.3,2.3v2.869a.573.573,0,0,0,.574.573h3.443a.573.573,0,0,0,.574-.573v-2.869A2.3,2.3,0,0,0,346.261,391.962Zm1.147,4.59h-2.295v-2.295a1.147,1.147,0,1,1,2.295,0Z" transform="translate(-343.966 -391.962)"/></g><g transform="translate(57.375 52.875)"><path class="a" d="M401.683,397.09h-.574v-2.295a1.145,1.145,0,0,1,.779-1.087.574.574,0,1,0-.367-1.087,2.292,2.292,0,0,0-1.559,2.174v2.869a.573.573,0,0,0,.574.573h1.148a.574.574,0,1,0,0-1.147Z" transform="translate(-399.962 -392.59)"/></g><g transform="translate(57.375 44.843)"><path class="a" d="M401.683,341.1h-.574v-2.3a1.145,1.145,0,0,1,.779-1.087.574.574,0,1,0-.367-1.087,2.292,2.292,0,0,0-1.559,2.174v2.869a.573.573,0,0,0,.574.574h1.148a.574.574,0,1,0,0-1.147Z" transform="translate(-399.962 -336.596)"/></g><g transform="translate(29.835 44.752)"><path class="a" d="M214.865,335.968a6.518,6.518,0,0,0-6.885,6.885v8.606a.574.574,0,0,0,1.148,0v-8.606a5.377,5.377,0,0,1,5.738-5.738,5.744,5.744,0,0,1,5.737,5.738v8.606a.574.574,0,0,0,1.148,0v-8.606A6.893,6.893,0,0,0,214.865,335.968Z" transform="translate(-207.98 -335.968)"/></g><g transform="translate(29.835 42.458)"><path class="a" d="M208.554,319.97a.573.573,0,0,0-.574.574v3.443a.574.574,0,0,0,1.148,0v-3.443A.573.573,0,0,0,208.554,319.97Z" transform="translate(-207.98 -319.97)"/></g><g transform="translate(29.835 42.457)"><path class="a" d="M221.176,319.969H208.554a.574.574,0,0,0,0,1.148h12.623a.574.574,0,1,0,0-1.148Z" transform="translate(-207.98 -319.969)"/></g><g transform="translate(42.458 42.457)"><path class="a" d="M296.546,319.969a.573.573,0,0,0-.574.574v2.386a.574.574,0,0,0,1.148,0v-2.386A.573.573,0,0,0,296.546,319.969Z" transform="translate(-295.972 -319.969)"/></g><g transform="translate(32.13 53.932)"><path class="a" d="M232.585,399.961h-8.033a.574.574,0,0,0,0,1.148h8.033a.574.574,0,0,0,0-1.148Z" transform="translate(-223.979 -399.961)"/></g><g transform="translate(36.146 49.343)"><path class="a" d="M252.55,367.966a.573.573,0,0,0-.574.574v2.3a.574.574,0,0,0,1.148,0v-2.3A.573.573,0,0,0,252.55,367.966Z" transform="translate(-251.976 -367.966)"/></g><g transform="translate(36.146 56.227)"><path class="a" d="M252.55,415.96a.573.573,0,0,0-.574.574v2.295a.574.574,0,0,0,1.148,0v-2.295A.574.574,0,0,0,252.55,415.96Z" transform="translate(-251.976 -415.96)"/></g><g transform="translate(12.623 35.572)"><path class="a" d="M88.566,271.974a.573.573,0,0,0-.574.574v5.738a.574.574,0,0,0,1.148,0v-5.738A.573.573,0,0,0,88.566,271.974Z" transform="translate(-87.992 -271.974)"/></g><g transform="translate(59.67 35.572)"><path class="a" d="M416.534,271.974a.573.573,0,0,0-.574.574v5.738a.574.574,0,1,0,1.147,0v-5.738A.573.573,0,0,0,416.534,271.974Z" transform="translate(-415.96 -271.974)"/></g><g transform="translate(49.343 34.425)"><path class="a" d="M346.835,263.976a2.871,2.871,0,0,0-2.869,2.869.574.574,0,1,0,1.148,0,1.721,1.721,0,1,1,3.443,0,.574.574,0,1,0,1.147,0A2.871,2.871,0,0,0,346.835,263.976Z" transform="translate(-343.966 -263.976)"/></g><g transform="translate(49.343 36.72)"><path class="a" d="M344.54,279.974a.573.573,0,0,0-.574.574v2.295a.574.574,0,1,0,1.148,0v-2.295A.573.573,0,0,0,344.54,279.974Z" transform="translate(-343.966 -279.974)"/></g><g transform="translate(53.933 36.72)"><path class="a" d="M376.538,279.974a.573.573,0,0,0-.574.574v2.295a.574.574,0,1,0,1.147,0v-2.295A.573.573,0,0,0,376.538,279.974Z" transform="translate(-375.964 -279.974)"/></g><g transform="translate(51.638 37.868)"><path class="a" d="M360.539,287.974a.573.573,0,0,0-.574.574V289.7a.574.574,0,1,0,1.147,0v-1.148A.573.573,0,0,0,360.539,287.974Z" transform="translate(-359.966 -287.974)"/></g><g transform="translate(49.343 36.72)"><path class="a" d="M349.13,279.974h-4.59a.574.574,0,0,0,0,1.148h4.59a.574.574,0,0,0,0-1.148Z" transform="translate(-343.966 -279.974)"/></g><g transform="translate(51.638 33.278)"><path class="a" d="M360.539,255.976a.574.574,0,0,0-.574.574V257.7a.574.574,0,0,0,1.147,0V256.55A.573.573,0,0,0,360.539,255.976Z" transform="translate(-359.966 -255.976)"/></g><g transform="translate(18.36 34.425)"><path class="a" d="M130.856,263.976a2.872,2.872,0,0,0-2.869,2.869.574.574,0,0,0,1.148,0,1.721,1.721,0,1,1,3.443,0,.574.574,0,1,0,1.147,0A2.872,2.872,0,0,0,130.856,263.976Z" transform="translate(-127.987 -263.976)"/></g><g transform="translate(18.36 36.72)"><path class="a" d="M128.562,279.974a.573.573,0,0,0-.574.574v2.295a.574.574,0,0,0,1.148,0v-2.295A.573.573,0,0,0,128.562,279.974Z" transform="translate(-127.988 -279.974)"/></g><g transform="translate(22.95 36.72)"><path class="a" d="M160.559,279.974a.573.573,0,0,0-.574.574v2.295a.574.574,0,1,0,1.147,0v-2.295A.573.573,0,0,0,160.559,279.974Z" transform="translate(-159.985 -279.974)"/></g><g transform="translate(20.655 37.868)"><path class="a" d="M144.561,287.974a.573.573,0,0,0-.574.574V289.7a.574.574,0,1,0,1.147,0v-1.148A.573.573,0,0,0,144.561,287.974Z" transform="translate(-143.987 -287.974)"/></g><g transform="translate(18.36 36.72)"><path class="a" d="M133.152,279.974h-4.59a.574.574,0,0,0,0,1.148h4.59a.574.574,0,0,0,0-1.148Z" transform="translate(-127.988 -279.974)"/></g><g transform="translate(20.655 33.278)"><path class="a" d="M144.561,255.976a.573.573,0,0,0-.574.574V257.7a.574.574,0,0,0,1.147,0V256.55A.573.573,0,0,0,144.561,255.976Z" transform="translate(-143.987 -255.976)"/></g><g transform="translate(14.918 39.015)"><path class="a" d="M104.565,295.971a.573.573,0,0,0-.574.574v2.116a.574.574,0,0,0,1.148,0v-2.116A.574.574,0,0,0,104.565,295.971Z" transform="translate(-103.991 -295.971)"/></g><g transform="translate(57.375 39.015)"><path class="a" d="M400.536,295.971a.573.573,0,0,0-.574.574v2.116a.574.574,0,1,0,1.147,0v-2.116A.573.573,0,0,0,400.536,295.971Z" transform="translate(-399.962 -295.971)"/></g><g transform="translate(36.146 6.886)"><g transform="translate(0 0)"><path class="a" d="M266.6,85.189c-2.818-8.194-13.373-12.942-13.822-13.14a.574.574,0,0,0-.464,1.049c.1.047,10.546,4.747,13.2,12.464C267.6,91.607,263.05,97.4,263,97.46a.574.574,0,0,0,.9.717C264.1,97.922,268.891,91.84,266.6,85.189Z" transform="translate(-251.976 -72.001)"/></g></g><g transform="translate(22.02 6.885)"><path class="a" d="M168.7,72.334a.574.574,0,0,0-.756-.293c-.448.2-11,4.946-13.822,13.14-2.288,6.65,2.5,12.733,2.7,12.988a.574.574,0,0,0,.9-.717c-.047-.058-4.595-5.853-2.516-11.9,2.654-7.717,13.1-12.417,13.2-12.464A.573.573,0,0,0,168.7,72.334Z" transform="translate(-153.503 -71.992)"/></g><g transform="translate(36.146 0)"><path class="a" d="M252.55,24a.573.573,0,0,0-.574.574v6.885a.574.574,0,0,0,1.148,0V24.573A.574.574,0,0,0,252.55,24Z" transform="translate(-251.976 -23.999)"/></g><g transform="translate(25.245 26.392)"><path class="a" d="M198.359,207.979h-21.8a.574.574,0,0,0,0,1.148h21.8a.574.574,0,1,0,0-1.148Z" transform="translate(-175.983 -207.979)"/></g><g transform="translate(26.393 28.687)"><path class="a" d="M204.064,223.979H184.557a.574.574,0,0,0,0,1.148h19.508a.574.574,0,0,0,0-1.148Z" transform="translate(-183.983 -223.979)"/></g><g transform="translate(33.278 10.328)"><path class="a" d="M238.289,95.992h-5.737a.574.574,0,1,0,0,1.147h5.737a.574.574,0,1,0,0-1.147Z" transform="translate(-231.978 -95.992)"/></g><g transform="translate(27.54 28.114)"><path class="a" d="M192.556,219.979a.574.574,0,0,0-.574.574v.574a.574.574,0,0,0,1.148,0v-.574A.573.573,0,0,0,192.556,219.979Z" transform="translate(-191.982 -219.979)"/></g><g transform="translate(30.983 28.114)"><path class="a" d="M216.553,219.979a.574.574,0,0,0-.574.574v.574a.574.574,0,0,0,1.148,0v-.574A.573.573,0,0,0,216.553,219.979Z" transform="translate(-215.979 -219.979)"/></g><g transform="translate(34.425 28.114)"><path class="a" d="M240.551,219.979a.574.574,0,0,0-.574.574v.574a.574.574,0,1,0,1.147,0v-.574A.573.573,0,0,0,240.551,219.979Z" transform="translate(-239.977 -219.979)"/></g><g transform="translate(37.868 28.114)"><path class="a" d="M264.549,219.979a.573.573,0,0,0-.574.574v.574a.574.574,0,1,0,1.147,0v-.574A.573.573,0,0,0,264.549,219.979Z" transform="translate(-263.976 -219.979)"/></g><g transform="translate(41.31 28.114)"><path class="a" d="M288.546,219.979a.574.574,0,0,0-.574.574v.574a.574.574,0,0,0,1.148,0v-.574A.573.573,0,0,0,288.546,219.979Z" transform="translate(-287.972 -219.979)"/></g><g transform="translate(44.753 28.114)"><path class="a" d="M312.544,219.979a.574.574,0,0,0-.574.574v.574a.574.574,0,0,0,1.148,0v-.574A.574.574,0,0,0,312.544,219.979Z" transform="translate(-311.97 -219.979)"/></g><g transform="translate(0 65.408)"><path class="a" d="M72.867,479.955H.575a.574.574,0,1,0,0,1.147H72.867a.574.574,0,1,0,0-1.147Z" transform="translate(-0.001 -479.955)"/></g><g transform="translate(0 61.965)"><path class="a" d="M.575,455.956A.573.573,0,0,0,0,456.53v3.443a.574.574,0,0,0,1.148,0V456.53A.573.573,0,0,0,.575,455.956Z" transform="translate(-0.001 -455.956)"/></g><g transform="translate(72.293 61.965)"><path class="a" d="M504.525,455.956a.573.573,0,0,0-.574.574v3.443a.574.574,0,0,0,1.148,0V456.53A.573.573,0,0,0,504.525,455.956Z" transform="translate(-503.951 -455.956)"/></g><g transform="translate(0 33.278)"><path class="a" d="M4.016,255.976H.574A.573.573,0,0,0,0,256.55v26.392a.574.574,0,1,0,1.148,0V257.124H3.443v25.819a.574.574,0,1,0,1.148,0V256.55A.574.574,0,0,0,4.016,255.976Z" transform="translate(0 -255.976)"/></g><g transform="translate(6.885 42.457)"><path class="a" d="M50.865,319.969h-2.3a.573.573,0,0,0-.574.574v17.212a.574.574,0,0,0,1.148,0V321.117h1.147v16.639a.574.574,0,0,0,1.148,0V320.543A.574.574,0,0,0,50.865,319.969Z" transform="translate(-47.996 -319.969)"/></g><g transform="translate(0 28.687)"><path class="a" d="M4.584,226.089A2.3,2.3,0,0,0,0,226.273a.573.573,0,0,0,.574.574H4.017a.1.1,0,0,1,.023,0,.574.574,0,0,0,.543-.758ZM1.3,225.7a1.147,1.147,0,0,1,1.987,0Z" transform="translate(-0.001 -223.978)"/></g><g transform="translate(1.721 32.13)"><path class="a" d="M12.574,247.977a.573.573,0,0,0-.574.574V249.7a.574.574,0,1,0,1.147,0v-1.147A.573.573,0,0,0,12.574,247.977Z" transform="translate(-12 -247.977)"/></g><g transform="translate(0 32.13)"><path class="a" d="M.575,247.977a.573.573,0,0,0-.574.574V249.7a.574.574,0,0,0,1.148,0v-1.147A.573.573,0,0,0,.575,247.977Z" transform="translate(-0.001 -247.977)"/></g><g transform="translate(3.443 32.13)"><path class="a" d="M24.572,247.977a.573.573,0,0,0-.574.574V249.7a.574.574,0,0,0,1.148,0v-1.147A.573.573,0,0,0,24.572,247.977Z" transform="translate(-23.998 -247.977)"/></g><g transform="translate(1.721 27.54)"><path class="a" d="M12.574,215.979a.574.574,0,0,0-.574.574V217.7a.574.574,0,1,0,1.147,0v-1.148A.573.573,0,0,0,12.574,215.979Z" transform="translate(-12 -215.979)"/></g><g transform="translate(6.885 39.015)"><path class="a" d="M49.717,295.971A1.723,1.723,0,0,0,48,297.693a.574.574,0,0,0,1.148,0,.574.574,0,1,1,1.147,0,.574.574,0,0,0,1.147,0A1.723,1.723,0,0,0,49.717,295.971Z" transform="translate(-47.996 -295.971)"/></g><g transform="translate(6.885 41.31)"><path class="a" d="M48.57,311.969a.573.573,0,0,0-.574.574v1.148a.574.574,0,0,0,1.148,0v-1.148A.573.573,0,0,0,48.57,311.969Z" transform="translate(-47.996 -311.969)"/></g><g transform="translate(9.18 41.31)"><path class="a" d="M64.569,311.969a.573.573,0,0,0-.574.574v1.148a.574.574,0,0,0,1.148,0v-1.148A.573.573,0,0,0,64.569,311.969Z" transform="translate(-63.995 -311.969)"/></g><g transform="translate(8.033 37.868)"><path class="a" d="M56.57,287.974a.573.573,0,0,0-.574.574V289.7a.574.574,0,1,0,1.147,0v-1.148A.573.573,0,0,0,56.57,287.974Z" transform="translate(-55.996 -287.974)"/></g><g transform="translate(0 41.31)"><path class="a" d="M4.017,311.969H.575a.574.574,0,1,0,0,1.148H4.017a.574.574,0,1,0,0-1.148Z" transform="translate(-0.001 -311.969)"/></g><g transform="translate(0 49.343)"><path class="a" d="M4.017,367.966H.575a.574.574,0,1,0,0,1.147H4.017a.574.574,0,1,0,0-1.147Z" transform="translate(-0.001 -367.966)"/></g><g transform="translate(6.885 47.047)"><path class="a" d="M50.865,351.966h-2.3a.574.574,0,1,0,0,1.148h2.3a.574.574,0,1,0,0-1.148Z" transform="translate(-47.996 -351.966)"/></g><g transform="translate(6.885 51.638)"><path class="a" d="M50.865,383.964h-2.3a.574.574,0,1,0,0,1.147h2.3a.574.574,0,1,0,0-1.147Z" transform="translate(-47.996 -383.964)"/></g><g transform="translate(68.85 33.278)"><path class="a" d="M483.971,255.976h-3.443a.573.573,0,0,0-.574.574v26.392a.574.574,0,1,0,1.147,0V257.124h2.3v25.819a.574.574,0,1,0,1.148,0V256.55A.573.573,0,0,0,483.971,255.976Z" transform="translate(-479.955 -255.976)"/></g><g transform="translate(63.113 42.457)"><path class="a" d="M442.827,319.969h-2.3a.573.573,0,0,0-.573.574v17.212a.574.574,0,1,0,1.147,0V321.117h1.148v16.639a.574.574,0,1,0,1.147,0V320.543A.573.573,0,0,0,442.827,319.969Z" transform="translate(-439.958 -319.969)"/></g><g transform="translate(68.85 28.687)"><path class="a" d="M482.25,223.978a2.3,2.3,0,0,0-2.295,2.3.573.573,0,0,0,.574.574h3.443a.573.573,0,0,0,.574-.574A2.3,2.3,0,0,0,482.25,223.978Zm-.993,1.721a1.146,1.146,0,0,1,1.986,0Z" transform="translate(-479.955 -223.978)"/></g><g transform="translate(70.572 32.13)"><path class="a" d="M492.527,247.977a.573.573,0,0,0-.574.574V249.7a.574.574,0,0,0,1.148,0v-1.147A.574.574,0,0,0,492.527,247.977Z" transform="translate(-491.953 -247.977)"/></g><g transform="translate(72.293 32.13)"><path class="a" d="M504.525,247.977a.573.573,0,0,0-.574.574V249.7a.574.574,0,0,0,1.148,0v-1.147A.573.573,0,0,0,504.525,247.977Z" transform="translate(-503.951 -247.977)"/></g><g transform="translate(68.85 32.13)"><path class="a" d="M480.529,247.977a.573.573,0,0,0-.574.574V249.7a.574.574,0,1,0,1.147,0v-1.147A.573.573,0,0,0,480.529,247.977Z" transform="translate(-479.955 -247.977)"/></g><g transform="translate(70.572 27.54)"><path class="a" d="M492.527,215.979a.574.574,0,0,0-.574.574V217.7a.574.574,0,0,0,1.148,0v-1.148A.574.574,0,0,0,492.527,215.979Z" transform="translate(-491.953 -215.979)"/></g><g transform="translate(63.113 39.015)"><path class="a" d="M441.679,295.971a1.723,1.723,0,0,0-1.721,1.721.574.574,0,0,0,1.147,0,.574.574,0,1,1,1.148,0,.574.574,0,0,0,1.147,0A1.723,1.723,0,0,0,441.679,295.971Z" transform="translate(-439.958 -295.971)"/></g><g transform="translate(65.408 41.31)"><path class="a" d="M456.53,311.969a.573.573,0,0,0-.574.574v1.148a.574.574,0,1,0,1.147,0v-1.148A.573.573,0,0,0,456.53,311.969Z" transform="translate(-455.956 -311.969)"/></g><g transform="translate(63.113 41.31)"><path class="a" d="M440.531,311.969a.573.573,0,0,0-.573.574v1.148a.574.574,0,1,0,1.147,0v-1.148A.573.573,0,0,0,440.531,311.969Z" transform="translate(-439.958 -311.969)"/></g><g transform="translate(64.26 37.868)"><path class="a" d="M448.53,287.974a.573.573,0,0,0-.574.574V289.7a.574.574,0,0,0,1.148,0v-1.148A.573.573,0,0,0,448.53,287.974Z" transform="translate(-447.956 -287.974)"/></g><g transform="translate(68.85 41.31)"><path class="a" d="M483.971,311.969h-3.443a.574.574,0,0,0,0,1.148h3.443a.574.574,0,1,0,0-1.148Z" transform="translate(-479.955 -311.969)"/></g><g transform="translate(68.85 49.343)"><path class="a" d="M483.971,367.966h-3.443a.574.574,0,0,0,0,1.147h3.443a.574.574,0,1,0,0-1.147Z" transform="translate(-479.955 -367.966)"/></g><g transform="translate(63.113 47.047)"><path class="a" d="M442.827,351.966h-2.3a.574.574,0,0,0,0,1.148h2.3a.574.574,0,0,0,0-1.148Z" transform="translate(-439.958 -351.966)"/></g><g transform="translate(63.113 51.638)"><path class="a" d="M442.827,383.964h-2.3a.574.574,0,0,0,0,1.147h2.3a.574.574,0,0,0,0-1.147Z" transform="translate(-439.958 -383.964)"/></g><g transform="translate(4.016 64.26)"><path class="a" d="M28.572,471.955a.573.573,0,0,0-.574.574v1.148a.574.574,0,0,0,1.148,0v-1.148A.573.573,0,0,0,28.572,471.955Z" transform="translate(-27.998 -471.955)"/></g><g transform="translate(8.606 61.965)"><path class="a" d="M60.569,455.957a.573.573,0,0,0-.574.574v1.148a.574.574,0,0,0,1.148,0v-1.148A.574.574,0,0,0,60.569,455.957Z" transform="translate(-59.995 -455.957)"/></g><g transform="translate(13.196 64.26)"><path class="a" d="M92.566,471.955a.573.573,0,0,0-.574.574v1.148a.574.574,0,0,0,1.148,0v-1.148A.573.573,0,0,0,92.566,471.955Z" transform="translate(-91.992 -471.955)"/></g><g transform="translate(17.786 61.965)"><path class="a" d="M124.563,455.957a.573.573,0,0,0-.574.574v1.148a.574.574,0,0,0,1.147,0v-1.148A.573.573,0,0,0,124.563,455.957Z" transform="translate(-123.989 -455.957)"/></g><g transform="translate(22.376 64.26)"><path class="a" d="M156.559,471.955a.573.573,0,0,0-.574.574v1.148a.574.574,0,0,0,1.148,0v-1.148A.573.573,0,0,0,156.559,471.955Z" transform="translate(-155.985 -471.955)"/></g><g transform="translate(26.966 61.965)"><path class="a" d="M188.556,455.957a.573.573,0,0,0-.574.574v1.148a.574.574,0,0,0,1.148,0v-1.148A.573.573,0,0,0,188.556,455.957Z" transform="translate(-187.982 -455.957)"/></g><g transform="translate(31.556 64.26)"><path class="a" d="M220.553,471.955a.573.573,0,0,0-.574.574v1.148a.574.574,0,0,0,1.147,0v-1.148A.573.573,0,0,0,220.553,471.955Z" transform="translate(-219.979 -471.955)"/></g><g transform="translate(36.146 61.965)"><path class="a" d="M252.55,455.957a.573.573,0,0,0-.574.574v1.148a.574.574,0,0,0,1.148,0v-1.148A.574.574,0,0,0,252.55,455.957Z" transform="translate(-251.976 -455.957)"/></g><g transform="translate(40.737 64.26)"><path class="a" d="M284.548,471.955a.573.573,0,0,0-.573.574v1.148a.574.574,0,0,0,1.147,0v-1.148A.573.573,0,0,0,284.548,471.955Z" transform="translate(-283.974 -471.955)"/></g><g transform="translate(45.326 61.965)"><path class="a" d="M316.544,455.957a.573.573,0,0,0-.574.574v1.148a.574.574,0,0,0,1.148,0v-1.148A.573.573,0,0,0,316.544,455.957Z" transform="translate(-315.97 -455.957)"/></g><g transform="translate(49.916 64.26)"><path class="a" d="M348.54,471.955a.573.573,0,0,0-.574.574v1.148a.574.574,0,0,0,1.148,0v-1.148A.573.573,0,0,0,348.54,471.955Z" transform="translate(-347.966 -471.955)"/></g><g transform="translate(54.506 61.965)"><path class="a" d="M380.538,455.957a.573.573,0,0,0-.573.574v1.148a.574.574,0,0,0,1.147,0v-1.148A.573.573,0,0,0,380.538,455.957Z" transform="translate(-379.964 -455.957)"/></g><g transform="translate(59.096 64.26)"><path class="a" d="M412.534,471.955a.573.573,0,0,0-.574.574v1.148a.574.574,0,0,0,1.148,0v-1.148A.573.573,0,0,0,412.534,471.955Z" transform="translate(-411.96 -471.955)"/></g><g transform="translate(63.686 61.965)"><path class="a" d="M444.53,455.957a.573.573,0,0,0-.574.574v1.148a.574.574,0,0,0,1.148,0v-1.148A.573.573,0,0,0,444.53,455.957Z" transform="translate(-443.956 -455.957)"/></g><g transform="translate(68.277 64.26)"><path class="a" d="M476.529,471.955a.573.573,0,0,0-.574.574v1.148a.574.574,0,0,0,1.147,0v-1.148A.573.573,0,0,0,476.529,471.955Z" transform="translate(-475.955 -471.955)"/></g></g></svg>