<svg id="calendar" xmlns="http://www.w3.org/2000/svg" width="18.421" height="18.422" viewBox="0 0 18.421 18.422">
  <g id="Group_7349" data-name="Group 7349">
    <g id="Group_7348" data-name="Group 7348">
      <path id="Path_9696" data-name="Path 9696" d="M16.263,1.439H15.4V0H13.96V1.439h-9.5V0H3.022V1.439H2.159A2.161,2.161,0,0,0,0,3.6V16.263a2.161,2.161,0,0,0,2.159,2.159h14.1a2.161,2.161,0,0,0,2.159-2.159V3.6A2.161,2.161,0,0,0,16.263,1.439Zm.72,14.823a.72.72,0,0,1-.72.72H2.159a.72.72,0,0,1-.72-.72v-9.5H16.982Zm0-10.938H1.439V3.6a.72.72,0,0,1,.72-.72h.864V4.318H4.461V2.878h9.5V4.318H15.4V2.878h.864a.72.72,0,0,1,.72.72Z" fill="#7a869a"/>
    </g>
  </g>
  <g id="Group_7351" data-name="Group 7351" transform="translate(2.871 8.374)">
    <g id="Group_7350" data-name="Group 7350" transform="translate(0 0)">
      <rect id="Rectangle_3782" data-name="Rectangle 3782" width="1" height="1" transform="translate(0.129 0.048)" fill="#7a869a"/>
    </g>
  </g>
  <g id="Group_7353" data-name="Group 7353" transform="translate(5.741 8.374)">
    <g id="Group_7352" data-name="Group 7352" transform="translate(0 0)">
      <rect id="Rectangle_3783" data-name="Rectangle 3783" width="1" height="1" transform="translate(0.259 0.048)" fill="#7a869a"/>
    </g>
  </g>
  <g id="Group_7355" data-name="Group 7355" transform="translate(8.612 8.374)">
    <g id="Group_7354" data-name="Group 7354" transform="translate(0 0)">
      <rect id="Rectangle_3784" data-name="Rectangle 3784" width="1" height="1" transform="translate(0.388 0.048)" fill="#7a869a"/>
    </g>
  </g>
  <g id="Group_7357" data-name="Group 7357" transform="translate(11.483 8.374)">
    <g id="Group_7356" data-name="Group 7356" transform="translate(0 0)">
      <rect id="Rectangle_3785" data-name="Rectangle 3785" width="2" height="1" transform="translate(-0.483 0.048)" fill="#7a869a"/>
    </g>
  </g>
  <g id="Group_7359" data-name="Group 7359" transform="translate(14.354 8.374)">
    <g id="Group_7358" data-name="Group 7358" transform="translate(0 0)">
      <rect id="Rectangle_3786" data-name="Rectangle 3786" width="2" height="1" transform="translate(-0.354 0.048)" fill="#7a869a"/>
    </g>
  </g>
  <g id="Group_7361" data-name="Group 7361" transform="translate(2.871 11.245)">
    <g id="Group_7360" data-name="Group 7360" transform="translate(0 0)">
      <rect id="Rectangle_3787" data-name="Rectangle 3787" width="1" height="1" transform="translate(0.129 0.177)" fill="#7a869a"/>
    </g>
  </g>
  <g id="Group_7363" data-name="Group 7363" transform="translate(5.741 11.245)">
    <g id="Group_7362" data-name="Group 7362" transform="translate(0 0)">
      <rect id="Rectangle_3788" data-name="Rectangle 3788" width="1" height="1" transform="translate(0.259 0.177)" fill="#7a869a"/>
    </g>
  </g>
  <g id="Group_7365" data-name="Group 7365" transform="translate(8.612 11.245)">
    <g id="Group_7364" data-name="Group 7364" transform="translate(0 0)">
      <rect id="Rectangle_3789" data-name="Rectangle 3789" width="1" height="1" transform="translate(0.388 0.177)" fill="#7a869a"/>
    </g>
  </g>
  <g id="Group_7367" data-name="Group 7367" transform="translate(11.483 11.245)">
    <g id="Group_7366" data-name="Group 7366" transform="translate(0 0)">
      <rect id="Rectangle_3790" data-name="Rectangle 3790" width="2" height="1" transform="translate(-0.483 0.177)" fill="#7a869a"/>
    </g>
  </g>
  <g id="Group_7369" data-name="Group 7369" transform="translate(2.871 14.115)">
    <g id="Group_7368" data-name="Group 7368" transform="translate(0 0)">
      <rect id="Rectangle_3791" data-name="Rectangle 3791" width="1" height="1" transform="translate(0.129 0.306)" fill="#7a869a"/>
    </g>
  </g>
  <g id="Group_7371" data-name="Group 7371" transform="translate(5.741 14.115)">
    <g id="Group_7370" data-name="Group 7370" transform="translate(0 0)">
      <rect id="Rectangle_3792" data-name="Rectangle 3792" width="1" height="1" transform="translate(0.259 0.306)" fill="#7a869a"/>
    </g>
  </g>
  <g id="Group_7373" data-name="Group 7373" transform="translate(8.612 14.115)">
    <g id="Group_7372" data-name="Group 7372" transform="translate(0 0)">
      <rect id="Rectangle_3793" data-name="Rectangle 3793" width="1" height="1" transform="translate(0.388 0.306)" fill="#7a869a"/>
    </g>
  </g>
  <g id="Group_7375" data-name="Group 7375" transform="translate(11.483 14.115)">
    <g id="Group_7374" data-name="Group 7374" transform="translate(0 0)">
      <rect id="Rectangle_3794" data-name="Rectangle 3794" width="2" height="1" transform="translate(-0.483 0.306)" fill="#7a869a"/>
    </g>
  </g>
  <g id="Group_7377" data-name="Group 7377" transform="translate(14.354 11.245)">
    <g id="Group_7376" data-name="Group 7376" transform="translate(0 0)">
      <rect id="Rectangle_3795" data-name="Rectangle 3795" width="2" height="1" transform="translate(-0.354 0.177)" fill="#7a869a"/>
    </g>
  </g>
</svg>
