<svg xmlns="http://www.w3.org/2000/svg" width="21.588" height="16.5"><g data-name="Group 2"><g data-name="icon 1"><path data-name="Path 7457" d="M12.037.5h7.47a1.578 1.578 0 011.58 1.58v4.157a1.578 1.578 0 01-1.578 1.581h-.55v1.381c0 .656-.394.828-.876.382l-1.905-1.763h-4.144a1.578 1.578 0 01-1.575-1.581V2.08A1.578 1.578 0 0112.037.5z" fill="none" stroke="#0065ff"/><g data-name="Path 1"><path data-name="Path 7486" d="M4.08 16.137c-.405 0-.878-.315-.878-1.2v-1.488h-.369a2.471 2.471 0 01-2.471-2.476V5.415a2.471 2.471 0 012.471-2.47h9.983a2.471 2.471 0 012.471 2.47v5.555a2.471 2.471 0 01-2.466 2.475h-5.4l-2.44 2.27a1.361 1.361 0 01-.901.422z" fill="#fff"/><path data-name="Path 7487" d="M2.833 3.308A2.109 2.109 0 00.725 5.419v5.555a2.109 2.109 0 002.109 2.113h.731v1.846c0 .547.205.842.516.842a1.034 1.034 0 00.654-.331l2.548-2.357h5.537a2.109 2.109 0 002.1-2.113V5.419a2.109 2.109 0 00-2.109-2.112H2.833m0-.725h9.983A2.833 2.833 0 0115.65 5.42v5.554a2.833 2.833 0 01-2.828 2.838H7.566l-2.339 2.165a1.7 1.7 0 01-1.146.524c-.617 0-1.241-.484-1.241-1.567v-1.122h-.007A2.833 2.833 0 010 10.973V5.419a2.833 2.833 0 012.833-2.836z" fill="#0061ff"/></g></g></g></svg>