<svg xmlns="http://www.w3.org/2000/svg" width="23.484" height="28.501" viewBox="0 0 23.484 28.501">
  <path id="Path_7551" data-name="Path 7551" d="M547.942,311.631a4.073,4.073,0,0,0,3.684,2.255,4.966,4.966,0,0,0,.519-.028,3.851,3.851,0,0,0,3.076-2.757.233.233,0,0,0-.37-.245,1.289,1.289,0,0,1-.929.259,1.151,1.151,0,0,1-.739-.668c-.377-.716.039-2.257.52-4.04.157-.584.323-1.2.471-1.821a6.093,6.093,0,0,0-1.19-5.236,5.382,5.382,0,0,0-4.568-1.891,4.837,4.837,0,0,0-3.837,2.2,6.106,6.106,0,0,0-1.466-.19,5.666,5.666,0,0,0-4.774,2.141,8.072,8.072,0,0,0-1.477,3.218,8.371,8.371,0,0,1-.873,2.253.235.235,0,0,0,.017.271c.057.071.356.079.778.049a.048.048,0,0,0,0,.009,2.552,2.552,0,0,0,.713,1.785,9.037,9.037,0,0,0,2.524,4.9,11.02,11.02,0,0,1-.377,2.822,3.828,3.828,0,0,1-.329-.669.236.236,0,0,0-.281-.148,13.454,13.454,0,0,0-2.811,1.074.2.2,0,0,0-.037,0,.227.227,0,0,0-.178.123c-2.351,1.335-3.479,3.353-3.726,6.462l-.032.474a.6.6,0,0,0,.609.637,82.52,82.52,0,0,0,10.141.581h.365a82.47,82.47,0,0,0,10.13-.581.6.6,0,0,0,.608-.653l-.032-.459c-.247-3.107-1.432-5.169-3.833-6.511a.23.23,0,0,0-.1-.06,13.112,13.112,0,0,0-2.926-1.113.231.231,0,0,0-.279.148,4.34,4.34,0,0,1-.347.686,10.957,10.957,0,0,1-.391-2.8A7.8,7.8,0,0,0,547.942,311.631Zm.5-13.707a4.958,4.958,0,0,1,4.184,1.725,5.618,5.618,0,0,1,1.094,4.829c-.147.62-.311,1.228-.468,1.808-.528,1.956-.945,3.5-.482,4.379a1.589,1.589,0,0,0,1.056.908,1.425,1.425,0,0,0,.721-.046,3.162,3.162,0,0,1-2.45,1.868,3.6,3.6,0,0,1-3.9-2.37,11.028,11.028,0,0,0,.524-1.806,2.489,2.489,0,0,0,.705-1.791c.15-1.192-.059-2-.575-2.279a4.876,4.876,0,0,0-1.241-3.721,6,6,0,0,0-2.56-1.631A4.424,4.424,0,0,1,548.442,297.924ZM536.6,306.955a10.374,10.374,0,0,0,.712-2,7.715,7.715,0,0,1,1.389-3.048,5.238,5.238,0,0,1,4.414-1.971,5.727,5.727,0,0,1,4.153,1.8,4.437,4.437,0,0,1,1.112,3.49l-.138.247a5.405,5.405,0,0,0-2.609-2.97.232.232,0,0,0-.305.092,9.995,9.995,0,0,1-4.841,3.739A22.628,22.628,0,0,1,536.6,306.955Zm1.338,2.057a.231.231,0,0,0-.116-.161c-.363-.2-.493-.864-.572-1.488a26.461,26.461,0,0,0,3.4-.588,10.532,10.532,0,0,0,4.965-3.747,4.581,4.581,0,0,1,2.3,3.137.233.233,0,0,0,.435.087l.359-.643a2.244,2.244,0,0,1,.265,1.759c-.083.666-.209,1.308-.563,1.5a.234.234,0,0,0-.118.161,10.707,10.707,0,0,1-.5,1.793.227.227,0,0,0-.064.16c-.962,2.4-2.7,3.96-4.6,3.96C540.727,314.944,538.6,312.5,537.936,309.013Zm4.848,10.366c-.021.042-.04.086-.062.128a2.96,2.96,0,0,1-1.376,1.288,3.059,3.059,0,0,1-2.556-.052,4.069,4.069,0,0,1-1.99-2.052,4.4,4.4,0,0,1-.212-.571,4.308,4.308,0,0,1-.116-.542,12.491,12.491,0,0,1,2.487-.974A4.646,4.646,0,0,0,542.784,319.379Zm10.822,4.409.031.441c0,.1,0,.148-.2.174a91.257,91.257,0,0,1-20.518,0c-.2-.026-.2-.072-.2-.158l.031-.456c.225-2.826,1.226-4.7,3.291-5.963.028.143.061.284.1.424a4.859,4.859,0,0,0,.234.632,4.538,4.538,0,0,0,2.221,2.285,3.744,3.744,0,0,0,1.556.35,3.362,3.362,0,0,0,1.385-.3,3.423,3.423,0,0,0,1.593-1.489c0-.007.007-.016.011-.023s.007.015.011.022a3.423,3.423,0,0,0,1.593,1.489,3.365,3.365,0,0,0,1.386.3,3.74,3.74,0,0,0,1.556-.35,4.536,4.536,0,0,0,2.221-2.284,4.838,4.838,0,0,0,.234-.633,4.714,4.714,0,0,0,.109-.468C552.358,319.043,553.379,320.93,553.606,323.788Zm-6.32-7.216a12.693,12.693,0,0,1,2.529.965,4.257,4.257,0,0,1-.122.582,4.389,4.389,0,0,1-.212.571,4.071,4.071,0,0,1-1.989,2.052,3.056,3.056,0,0,1-2.556.052,2.956,2.956,0,0,1-1.376-1.288c-.022-.041-.04-.084-.061-.126A4.652,4.652,0,0,0,547.287,316.572Zm-1.027.8a3.825,3.825,0,0,1-3.089,1.559,3.933,3.933,0,0,1-3.208-1.552,9.055,9.055,0,0,0,.515-2.906,4.166,4.166,0,0,0,5.258.006A9.464,9.464,0,0,0,546.26,317.372Z" transform="translate(-532 -297.196)" fill="#5e6c84" stroke="#5e6c84" stroke-width="0.5"/>
</svg>
