<svg xmlns="http://www.w3.org/2000/svg" width="29.599" height="32.846" viewBox="0 0 29.599 32.846">
  <g id="Group_5014" data-name="Group 5014" transform="translate(0.25 0.288)">
    <path id="Path_7549" data-name="Path 7549" d="M455.424,256.647c.843,4.221,3.6,7.048,6.888,7.048s6.035-2.817,6.882-7.025a3.052,3.052,0,0,0,.865-2.2c.183-1.452-.068-2.444-.691-2.788a6.7,6.7,0,0,0-1.372-5.3c-1.567-1.865-4.2-2.551-7.113-1.821a4.759,4.759,0,0,0-4.013,1.517,7.417,7.417,0,0,0-1.6,5.584c-.636.341-.906,1.358-.726,2.8A3.126,3.126,0,0,0,455.424,256.647Zm1.868-10.183a4.14,4.14,0,0,1,3.128-1.352c.151,0,.305.007.46.022a.267.267,0,0,0,.1-.008c2.747-.7,5.134-.1,6.581,1.623a6.151,6.151,0,0,1,1.222,4.974l-.2.184-.435-.713a.286.286,0,0,0-.368-.11,7.464,7.464,0,0,1-3.963.2,15.919,15.919,0,0,1-3.087-.807,7.8,7.8,0,0,0-2.379-.555,2.476,2.476,0,0,0-2.318,1.929l-.171-.14A6.91,6.91,0,0,1,457.292,246.465Zm-1.76,5.719.473.388a.286.286,0,0,0,.462-.166c.016-.081.419-1.961,1.853-1.914a7.276,7.276,0,0,1,2.214.523,16.364,16.364,0,0,0,3.189.832,8.757,8.757,0,0,0,4.053-.152l.49.8a.284.284,0,0,0,.2.134.257.257,0,0,0,.041,0,.287.287,0,0,0,.192-.074l.4-.36c.372.238.53,1.081.389,2.2-.1.816-.257,1.6-.691,1.84a.286.286,0,0,0-.145.2c-.765,4-3.314,6.683-6.344,6.683s-5.588-2.694-6.35-6.7a.285.285,0,0,0-.142-.2c-.447-.247-.606-1.066-.7-1.835C454.977,253.264,455.144,252.416,455.532,252.184Z" transform="translate(-447.756 -244.275)" fill="#5e6c84" stroke="#5e6c84" stroke-width="0.5"/>
    <path id="Path_7550" data-name="Path 7550" d="M462.456,316.369c-.4-5.1-3.909-9.015-9.385-10.518a.229.229,0,0,0-.058-.017c-.04-.011-.078-.025-.119-.035a.281.281,0,0,0-.327.146,5.44,5.44,0,0,1-4.628,2.744h0a5.915,5.915,0,0,1-4.752-2.723c0-.005-.01-.006-.013-.011a.277.277,0,0,0-.122-.1l-.018,0a.283.283,0,0,0-.079-.02.238.238,0,0,0-.084.01h-.006l-.006,0-.024.007c-5.481,1.5-8.993,5.433-9.4,10.528l-.04.582a.737.737,0,0,0,.747.781,121.19,121.19,0,0,0,13.585.714h.448a120.954,120.954,0,0,0,13.572-.714.741.741,0,0,0,.746-.8Zm-9.752-9.581.195,3.645-3.685-1.313A5.953,5.953,0,0,0,452.7,306.788Zm-4.757,11.088h-.014l-3.286-7.366a.261.261,0,0,0-.034-.048l3.333-1.188,3.333,1.188a.285.285,0,0,0-.034.048l-3.286,7.366Zm-1.27-8.755-3.683,1.312.187-3.5A6.42,6.42,0,0,0,446.676,309.121Zm-12.709,7.853.039-.56c.375-4.731,3.591-8.409,8.624-9.913l-.231,4.33a.286.286,0,0,0,.286.3.283.283,0,0,0,.1-.017l1.32-.471a.282.282,0,0,0,.022.1l3.18,7.129a119.019,119.019,0,0,1-13.088-.707C433.968,317.134,433.968,317.078,433.968,316.973Zm27.708.193a119.043,119.043,0,0,1-13.088.707l3.18-7.129a.265.265,0,0,0,.022-.1l1.321.471a.286.286,0,0,0,.382-.285l-.231-4.329c5.036,1.5,8.249,5.173,8.624,9.909l.039.541C461.924,317.078,461.924,317.134,461.676,317.166Z" transform="translate(-433.396 -286.141)" fill="#5e6c84" stroke="#5e6c84" stroke-width="0.5"/>
  </g>
</svg>
