<svg id="upload" xmlns="http://www.w3.org/2000/svg" width="36" height="36" viewBox="0 0 36 36">
  <path id="Path_4830" data-name="Path 4830" d="M18,0A18,18,0,1,0,36,18,18,18,0,0,0,18,0Zm0,34.8A16.8,16.8,0,1,1,34.8,18,16.8,16.8,0,0,1,18,34.8Zm0,0" transform="translate(0 0)" fill="#0065ff"/>
  <path id="Path_4831" data-name="Path 4831" d="M152.654,118a.6.6,0,0,0,.374-.132l5.026-4.02V125.8a.6.6,0,0,0,1.2,0V113.849l5.025,4.02a.6.6,0,0,0,.75-.937l-6-4.8a.775.775,0,0,1-.116-.067.562.562,0,0,0-.06-.025.576.576,0,0,0-.083-.021.628.628,0,0,0-.081-.012c-.011,0-.021-.007-.033-.007s-.022.006-.033.007a.606.606,0,0,0-.079.012.6.6,0,0,0-.084.021.559.559,0,0,0-.06.025.532.532,0,0,0-.068.043c-.016.01-.033.013-.049.025l-6,4.8a.6.6,0,0,0,.37,1.068Zm0,0" transform="translate(-140.654 -103.6)" fill="#0065ff"/>
  <path id="Path_4832" data-name="Path 4832" d="M164.6,336h-12a.6.6,0,1,0,0,1.2h12a.6.6,0,0,0,0-1.2Zm0,0" transform="translate(-140.6 -310.8)" fill="#0065ff"/>
</svg>
