<?xml version="1.0" encoding="UTF-8"?>
<svg width="18px" height="18px" viewBox="0 0 18 18" version="1.1" xmlns="http://www.w3.org/2000/svg" xmlns:xlink="http://www.w3.org/1999/xlink">
    <!-- Generator: Sketch 52.2 (67145) - http://www.bohemiancoding.com/sketch -->
    <title>check_circle - material</title>
    <desc>Created with Sketch.</desc>
    <g id="Page-1" stroke="none" stroke-width="1" fill="none" fill-rule="evenodd">
        <g id="Step-1-Traveller-2-info" transform="translate(-303.000000, -1052.000000)" fill="#7ED321">
            <g id="Group-17" transform="translate(28.000000, 1034.000000)">
                <g id="Group-16">
                    <path d="M282.32,31.18 L289.82,23.68 L288.64,22.46 L282.32,28.8 L279.36,25.82 L278.18,27 L282.32,31.18 Z M284,18.68 C285.520008,18.68 286.92666,19.0599962 288.22,19.82 C289.47334,20.5400036 290.459996,21.5266604 291.18,22.78 C291.940004,24.0733398 292.32,25.4799924 292.32,27 C292.32,28.5200076 291.940004,29.9266602 291.18,31.22 C290.459996,32.4733396 289.47334,33.4599964 288.22,34.18 C286.92666,34.9400038 285.520008,35.32 284,35.32 C282.479992,35.32 281.07334,34.9400038 279.78,34.18 C278.52666,33.446663 277.540004,32.4533396 276.82,31.2 C276.059996,29.9066602 275.68,28.5066742 275.68,27 C275.68,25.4933258 276.059996,24.0933398 276.82,22.8 C277.553337,21.5466604 278.54666,20.553337 279.8,19.82 C281.09334,19.0599962 282.493326,18.68 284,18.68 Z" id="check_circle---material"></path>
                </g>
            </g>
        </g>
    </g>
</svg>