<svg xmlns="http://www.w3.org/2000/svg" width="19.748" height="15.44" viewBox="0 0 19.748 15.44"><defs><style>.a{fill:#fff;stroke:#0065ff;stroke-width:0.5px;}</style></defs><g transform="translate(-35.489 -2.827)"><g transform="translate(20.982 0)"><path class="a" d="M96.172,199.632a.661.661,0,1,1-1.284-.314,9.56,9.56,0,0,0-15.394-9.611l2.882.26a.662.662,0,0,1-.123,1.318l-4.357-.392a.661.661,0,0,1-.6-.72l.392-4.357a.66.66,0,0,1,.657-.6.239.239,0,0,1,.059,0,.661.661,0,0,1,.6.72l-.235,2.651a10.809,10.809,0,0,1,6.288-2.4c.186-.01.372-.015.554-.015a10.883,10.883,0,0,1,10.561,13.453Z" transform="translate(-62.536 -182.137)"/></g></g></svg>