<?xml version="1.0" encoding="UTF-8"?>
<svg width="707px" height="115px" viewBox="0 0 707 115" version="1.1" xmlns="http://www.w3.org/2000/svg" xmlns:xlink="http://www.w3.org/1999/xlink">
    <!-- Generator: Sketch 55 (78076) - https://sketchapp.com -->
    <title>Group 2</title>
    <desc>Created with Sketch.</desc>
    <g id="Page-1" stroke="none" stroke-width="1" fill="none" fill-rule="evenodd">
        <g id="Group-2" fill-rule="nonzero">
            <g id="Group">
                <path d="M0.3,32.8 C2,32.8 3.8,32.9 5.5,32.9 C9.6,32.9 13.6,32.9 17.7,32.9 C18.4,32.9 18.6,33.1 18.6,33.8 C18.6,36.3 18.6,38.8 18.6,41.4 C18.6,41.7 18.6,42.1 18.6,42.4 C18.7,42.4 18.8,42.5 18.8,42.5 C19,42.2 19.2,42 19.4,41.7 C22.2,37.6 25.6,34.2 30.4,32.7 C39.3,29.8 48.7,32.8 52.9,43.8 C54.9,49.2 55.4,54.8 55,60.5 C54.6,66 53.4,71.4 50.6,76.3 C46.5,83.4 40.2,86.7 32,86 C27.3,85.6 23.4,83.5 20,80.3 C19.6,79.9 19.3,79.5 19,79.1 C18.9,79.2 18.8,79.2 18.7,79.3 C18.7,87.5 18.7,95.8 18.7,104.1 C15.5,104.1 12.5,104.1 9.4,104.1 C9.4,103.8 9.3,103.6 9.3,103.4 C9.3,83.9 9.3,64.3 9.3,44.8 C9.3,43.3 9.2,41.8 9,40.4 C8.6,37.9 7.4,36.7 4.9,36.3 C3.7,36.1 2.5,36 1.3,35.9 C0.7,35.9 0.5,35.6 0.5,35 C0.5,34.4 0.4,33.8 0.3,33.2 C0.3,32.9 0.3,32.9 0.3,32.8 Z M18.6,60.5 C18.6,65.2 18.6,69.9 18.6,74.5 C18.6,75 18.9,75.6 19.3,75.8 C22.8,78.4 26.6,80.3 30.9,80.9 C34.3,81.4 37.4,80.7 40,78.3 C42,76.4 43.2,73.9 43.9,71.3 C45.7,64.7 45.8,58 44.6,51.3 C44,47.9 42.9,44.6 40.8,41.6 C38,37.7 34.3,36.2 29.8,37.5 C25.2,38.8 21.7,41.6 18.9,45.4 C18.7,45.7 18.6,46.2 18.6,46.6 C18.6,51.4 18.6,56 18.6,60.5 Z" id="Shape" fill="#0065FF"></path>
                <path d="M272.3,11.9 C272.3,10.9 272.3,10 272.3,9 C278.4,9 284.5,9 290.6,9 C290.6,20.1 290.6,31.2 290.6,42.4 C291.9,40.9 293,39.4 294.3,38 C300,32.1 307,30.2 314.9,32.5 C319.9,33.9 323.1,37.5 325.4,42 C327.3,45.8 328.2,49.8 328.5,54 C328.9,60.2 328.4,66.4 326,72.3 C324.1,77.1 321.2,81.1 316.6,83.8 C309.2,88.1 299.4,87 292.8,81.3 C292.2,80.7 291.6,80.1 291,79.6 C290.8,79.4 290.5,79.3 290.3,79.3 C290.2,79.3 290,79.7 290,79.9 C289.7,81.6 289.4,83.3 289,85 C288.9,85.3 288.6,85.7 288.4,85.7 C286,85.7 283.6,85.7 281.1,85.7 C281.1,85.3 281.1,84.9 281.1,84.6 C281.1,63.4 281.1,42.3 281.1,21.1 C281.1,19.1 280.9,17.1 280.6,15 C280.5,13.8 279.7,13 278.6,12.8 C276.9,12.5 275.1,12.2 273.4,11.9 C273,11.9 272.6,11.9 272.3,11.9 Z M290.6,60.6 C290.6,65.3 290.6,70 290.6,74.7 C290.6,75.1 290.8,75.6 291,75.8 C294.4,78.3 298.1,80.3 302.4,80.9 C309.3,82 314.2,79.3 316.6,72.7 C317.8,69.3 318.2,65.8 318.3,62.2 C318.4,57.3 318.3,52.5 317,47.8 C316.2,45 315.1,42.4 312.9,40.4 C309.8,37.7 306.2,37.3 302.4,38 C297.8,38.9 294.3,41.5 291.3,45 C290.8,45.6 290.6,46.2 290.6,47 C290.6,51.5 290.6,56.1 290.6,60.6 Z" id="Shape" fill="#253858"></path>
                <path d="M378.5,81.7 C378.5,82.1 378.6,82.4 378.6,82.7 C378.8,85.2 378.8,85.3 376.3,85.8 C374.8,86.1 373.3,86.3 371.8,86.2 C367.9,86 365.7,83.6 364.4,80.1 C364.2,79.4 364,78.7 363.7,78 C362.7,78.9 361.7,79.8 360.7,80.6 C357.5,83.2 353.9,85.3 349.7,86.1 C342.9,87.4 336.1,84.3 333,78.7 C329.7,72.7 330.6,63.1 338.9,58.2 C342.4,56.2 346.2,55.2 350.2,54.8 C353.5,54.5 356.9,54.4 360.2,54.2 C360.6,54.2 361,54.2 361.5,54.2 C361.4,49.8 361.9,45.5 360.6,41.2 C359.3,37.3 356.3,35.1 352.2,35.3 C350.6,35.4 348.9,35.6 347.4,36.1 C343.8,37.2 342.1,39.9 341.8,43.5 C341.7,44.1 341.7,44.8 341.7,45.5 C339.6,45.5 337.5,45.5 335.2,45.5 C335.2,45.1 335.2,44.7 335.2,44.3 C335.2,41.8 335.2,39.3 335.2,36.7 C335.2,36.4 335.4,35.9 335.7,35.7 C342.3,32.8 349.2,31.1 356.5,31.6 C359.4,31.8 362.1,32.4 364.6,33.9 C368.2,36 370,39.4 370.6,43.4 C370.8,45 370.9,46.7 370.9,48.3 C370.9,55.8 370.9,63.3 370.9,70.8 C370.9,73.3 371.1,75.8 371.6,78.2 C372,80.6 373.4,81.7 375.5,81.9 C376.5,82.1 377.5,81.8 378.5,81.7 Z M361.6,57.1 C357.1,57.1 352.7,57.2 348.6,59.1 C343.5,61.5 341.2,65.4 341.4,71 C341.6,77 347.2,81.5 353.1,80.6 C356,80.1 358.5,78.8 361,77.3 C361.5,77 361.7,76.6 361.7,76.1 C361.7,70.4 361.7,64.6 361.7,58.9 C361.6,58.3 361.6,57.8 361.6,57.1 Z" id="Shape" fill="#253858"></path>
                <path d="M500.9,45.5 C498.7,45.5 496.7,45.5 494.5,45.5 C494.5,45.2 494.4,45 494.4,44.7 C494.4,42 494.4,39.3 494.4,36.7 C494.4,36.4 494.6,35.9 494.9,35.7 C501.5,32.8 508.4,31 515.7,31.6 C517.6,31.8 519.6,32.2 521.4,32.8 C526.5,34.6 529.1,38.4 529.8,43.5 C530,44.8 530,46.1 530,47.4 C530,55.3 530,63.3 530,71.2 C530,73.4 530.2,75.7 530.7,77.9 C531.4,81.2 533.3,82.3 536.6,81.6 C536.8,81.5 537.1,81.5 537.5,81.4 C537.6,82.5 537.7,83.5 537.8,84.5 C537.8,84.7 537.6,85 537.4,85 C534.8,85.8 532.2,86.4 529.5,85.8 C526.6,85.1 524.8,83.2 523.7,80.5 C523.4,79.6 523.1,78.7 522.8,77.7 C521.8,78.6 520.9,79.4 519.9,80.2 C516.6,82.9 513.1,85.1 508.9,85.7 C502.4,86.7 496.8,84.9 492.9,79.3 C488.9,73.7 489.1,62.9 498.5,57.6 C501.9,55.7 505.6,54.8 509.5,54.4 C512.9,54.1 516.3,54 519.7,53.8 C520,53.8 520.3,53.8 520.5,53.8 C520.6,53.7 520.7,53.6 520.7,53.6 C520.6,50.2 520.7,46.9 520.4,43.5 C520.1,40.2 518.9,37.3 515.7,35.8 C512.9,34.5 510,34.6 507.2,35.5 C502.3,37.2 501.3,39.6 500.9,44.5 C500.9,45.1 500.9,45.3 500.9,45.5 Z M520.6,57.1 C516.5,57.1 512.5,57.2 508.7,58.8 C503.5,60.9 500.6,64.5 500.5,70.4 C500.4,76.7 506.1,81.7 512.2,80.7 C515,80.2 517.5,78.9 519.9,77.5 C520.4,77.2 520.6,76.8 520.6,76.2 C520.6,70.2 520.6,64.3 520.6,58.3 C520.7,57.8 520.6,57.5 520.6,57.1 Z" id="Shape" fill="#253858"></path>
                <path d="M466.9,54.1 C466.7,49.7 467.4,45.3 466,41.1 C464.7,37.2 461.8,35.2 457.6,35.2 C455.4,35.2 453.3,35.7 451.4,36.7 C448.9,38 447.7,40 447.3,42.7 C447.2,43.6 447.1,44.5 447,45.5 C444.9,45.5 442.9,45.5 440.8,45.5 C440.8,45.3 440.7,45.1 440.7,44.9 C440.7,42.2 440.7,39.4 440.7,36.7 C440.7,36.4 441,35.9 441.3,35.8 C446.4,33.6 451.6,32 457.1,31.7 C460.1,31.5 463.2,31.6 466.1,32.4 C472,34 475.6,38.2 476.1,44.3 C476.2,45.7 476.3,47.2 476.3,48.6 C476.3,56.9 476.3,65.3 476.4,73.6 C476.4,75.1 476.6,76.6 477,78 C477.7,81.1 479.5,82.3 482.7,81.8 C483,81.7 483.3,81.7 483.8,81.6 C483.9,82.8 484,83.9 484.1,85.1 C480.9,86.1 477.8,86.9 474.5,85.6 C471.1,84.2 469.9,81.2 469.1,78 C467.6,79.2 466.2,80.5 464.7,81.6 C461.3,84.2 457.6,85.9 453.3,86.2 C444.7,86.8 438.1,81.3 436.9,74.3 C435.7,67.2 438.7,60.7 446,57.2 C449.6,55.5 453.4,54.8 457.2,54.5 C460.1,54.3 463.1,54.2 466,54.1 C466.3,54.2 466.6,54.1 466.9,54.1 Z M466.9,57.1 C462.5,57.1 458.3,57.2 454.3,59 C449.4,61.2 446.7,64.9 446.7,70.5 C446.7,76.8 452.3,81.6 458.4,80.6 C461.2,80.2 463.6,78.9 466,77.4 C466.6,77 466.8,76.7 466.8,75.9 C466.8,70 466.8,64 466.8,58.1 C466.9,57.8 466.9,57.5 466.9,57.1 Z" id="Shape" fill="#253858"></path>
                <path d="M84.5,86.1 C72.2,86.2 62.8,78.5 60.2,66.2 C58.4,57.8 59.4,49.7 64.1,42.3 C68.1,36 74,32.6 81.5,31.9 C87.1,31.3 92.4,32.1 97.3,35 C103.3,38.5 106.8,44 108.5,50.6 C110.6,59 109.8,67.1 105.5,74.6 C101.7,81.2 95.9,84.9 88.3,85.9 C87.9,85.9 87.6,86 87.2,86 C86.3,86.1 85.4,86.1 84.5,86.1 Z M99.8,57.9 C99.7,56.6 99.5,54.2 99.1,51.9 C98.4,47.3 96.9,43 94,39.3 C89.7,33.8 82.7,32.7 77.3,36.8 C74.8,38.8 73.1,41.4 71.9,44.3 C68.9,51.8 68.5,59.5 70,67.4 C70.9,71.7 72.4,75.7 75.4,79.1 C79.3,83.7 85.7,84.7 90.6,81.6 C93.1,80 94.8,77.7 96.1,75.1 C98.8,70.1 99.7,64.6 99.8,57.9 Z" id="Shape" fill="#0065FF"></path>
                <path d="M398.2,81.5 C409.7,81.5 421,81.5 432.4,81.5 C432.4,82.7 432.4,83.8 432.4,85 C417.2,85 402,85 386.8,85 C386.8,83.4 386.7,82.1 387.7,80.6 C398.4,65.9 408.9,51.1 419.5,36.3 C419.6,36.1 419.7,36 420,35.6 C419.5,35.6 419.2,35.6 418.8,35.6 C412.2,35.6 405.7,35.6 399.1,35.6 C397.8,35.6 396.5,35.8 395.2,35.9 C394.2,36 393.7,36.6 393.5,37.5 C393.4,38.5 393.3,39.4 393.3,40.4 C393.3,41.6 393.3,42.8 393.3,44 C391.4,44 389.8,44 388.2,44 C388.2,40.2 388.2,36.5 388.2,32.7 C402.5,32.7 416.8,32.7 431.1,32.7 C431.3,34.3 431.1,35.7 430.1,37.1 C419.6,51.6 409.2,66.1 398.8,80.6 C398.7,81 398.5,81.2 398.2,81.5 Z" id="Path" fill="#253858"></path>
                <path d="M541.2,35.5 C541.2,34.7 541.2,33.8 541.2,32.8 C547.3,32.8 553.4,32.8 559.6,32.8 C559.6,36 559.6,39.1 559.6,42.3 C564.4,34.9 570.6,30.4 579.9,32 C579.9,36.9 579.9,41.6 579.9,46.4 C578.2,46.4 576.5,46.4 574.7,46.4 C574.5,45 574.4,43.5 574.1,42.1 C573.7,39.8 573.3,39.5 571,39.5 C566.7,39.6 563.6,41.8 561,45 C560,46.3 559.5,47.6 559.5,49.3 C559.6,57.1 559.5,64.8 559.6,72.6 C559.6,74.5 559.8,76.5 560,78.4 C560.1,80.2 561.1,81.4 562.9,81.6 C564.6,81.9 566.3,82 568,82.2 C568.6,82.3 569.1,82.3 569.7,82.3 C569.7,83.3 569.7,84.2 569.7,85.2 C560.2,85.2 550.8,85.2 541.2,85.2 C541.2,84.4 541.1,83.5 541.2,82.7 C541.2,82.5 541.7,82.2 542,82.2 C543.6,82 545.2,81.8 546.8,81.6 C548.6,81.3 549.6,80.3 549.8,78.5 C549.9,76.7 550.1,74.9 550.1,73.1 C550.1,63.8 550.1,54.4 550.1,45.1 C550.1,43.1 549.8,41.1 549.6,39.1 C549.5,37.9 548.7,37 547.5,36.8 C545.5,36.2 543.4,35.9 541.2,35.5 Z" id="Path" fill="#253858"></path>
                <path d="M108.9,11.7 C108.9,10.9 108.9,10 108.9,9.1 C109.3,9.1 109.6,9.1 109.9,9.1 C115.2,9.1 120.6,9.1 125.9,9.1 C126.8,9.1 127,9.4 127,10.3 C127,22 127.1,33.6 127.1,45.3 C127.1,58.1 127.2,70.9 127.2,83.7 C127.2,85.1 127.2,85.1 125.8,85.1 C123,85.1 120.1,85.1 117.2,85.1 C117.2,84.7 117.1,84.4 117.1,84.1 C117.1,77.1 117.2,70 117.2,63 C117.2,58 117.3,52.9 117.4,47.9 C117.5,38.5 117.6,29 117.7,19.6 C117.7,18.4 117.5,17.2 117.3,16.1 C116.9,14.3 115.8,13 113.9,12.6 C112.3,12.1 110.6,11.9 108.9,11.7 Z" id="Path" fill="#0065FF"></path>
                <path d="M264,32.9 C262.9,34.9 261.9,36.8 261,38.7 C255.8,50.1 250.6,61.5 245.5,72.8 C241.7,81.1 238,89.4 234.2,97.6 C232.8,100.6 230.9,103.1 227.3,103.6 C225.9,103.8 224.5,103.8 223.1,103.8 C220.4,103.8 217.6,103.7 214.9,103.6 C214.3,103.6 213.7,103.5 213.2,103.5 C212.8,102 212.9,101.8 214.3,101.9 C216.1,102 217.9,102.1 219.7,102.2 C222.6,102.4 225.5,102 228.2,100.7 C229.9,99.9 231.2,98.7 231.9,97.1 C233,94.7 233.9,92.1 234.8,89.6 C235.3,88.4 235.7,87.1 236.3,85.9 C236.6,85.3 236.6,84.8 236.3,84.2 C230.9,71.2 225.4,58.2 220,45.2 C219.3,43.5 218.7,41.8 217.9,40.1 C216.7,37.6 214.9,35.9 211.9,35.6 C211.7,35.6 211.5,35.2 211.4,35 C211.4,35 211.4,34.9 211.4,34.8 C211.4,32.4 211.1,32.9 213.3,32.8 C217.7,32.8 222.2,32.8 226.6,32.8 C226.9,32.8 227.3,32.8 227.8,32.8 C227.8,34 227.9,35.1 227.8,36.2 C227.6,38.3 228.2,40.3 229,42.2 C233.3,52.3 237.5,62.5 241.7,72.6 C241.8,72.9 242,73.2 242.1,73.6 C242.3,73.3 242.4,73.2 242.5,73.1 C246.8,63.3 251.2,53.6 255.4,43.7 C256.8,40.5 257.7,37.1 258.8,33.7 C259,33 259.3,32.8 260,32.8 C261.4,32.9 262.7,32.9 264,32.9 Z" id="Path" fill="#0065FF"></path>
                <path d="M206.1,79.4 C206.1,80.6 206.1,81.6 206.1,82.6 C206.1,82.9 205.8,83.3 205.6,83.4 C198.4,86.1 191,87.3 183.5,85 C175.8,82.7 170.6,77.4 167.9,69.9 C164.4,60.3 164.9,51 170.4,42.2 C174.4,35.9 180.3,32.6 187.7,31.8 C193.7,31.1 199.6,32.5 205.4,33.8 C205.9,33.9 206.1,34.2 206.1,34.7 C206.1,38.3 206.1,41.9 206.1,45.5 C206.1,46.1 205.9,46.4 205.2,46.3 C203.9,46.3 202.6,46.3 201.3,46.3 C200.5,46.3 200.3,46.1 200.3,45.3 C200.2,43.9 200,42.5 199.7,41.1 C198.3,36.1 195,34.3 189.9,34.6 C184.3,34.9 180.7,38.1 178.3,42.9 C176.6,46.2 175.9,49.8 175.6,53.5 C175.1,58.9 175.7,64.3 177.4,69.4 C179.5,75.9 183.8,80.1 190.7,81.4 C195.6,82.3 200.3,81.6 204.9,79.8 C205.3,79.8 205.6,79.6 206.1,79.4 Z" id="Path" fill="#0065FF"></path>
                <path d="M139.9,35.6 C139.9,34.7 139.9,33.9 139.9,33 C145.9,33 151.9,33 158,33 C158.2,50.3 158.3,67.6 158.5,84.9 C155.1,84.9 151.9,84.9 148.5,84.9 C148.5,84.1 148.5,83.3 148.5,82.5 C148.6,75.1 148.6,67.7 148.7,60.3 C148.8,54.7 148.8,49.2 148.8,43.6 C148.8,42.4 148.7,41.3 148.5,40.1 C148,37.6 146.8,36.4 144.3,36 C143.6,35.9 142.9,35.8 142.2,35.7 C141.4,35.7 140.7,35.7 139.9,35.6 Z" id="Path" fill="#0065FF"></path>
                <path d="M158,13.9 C158,16.9 158,19.9 158,23 C155,23 152,23 148.9,23 C148.9,20 148.9,17 148.9,13.9 C151.9,13.9 154.9,13.9 158,13.9 Z" id="Path" fill="#0065FF"></path>
                <path d="M706.8,57.2 C706.8,88.7 681.3,114.3 649.7,114.3 C618.2,114.3 592.6,88.8 592.6,57.2 C592.6,25.7 618.1,0.1 649.7,0.1 C681.2,0.1 706.8,25.6 706.8,57.2 Z" id="Path" fill="#0065FF"></path>
                <g transform="translate(611.000000, 34.000000)" fill="#FFFFFF">
                    <path d="M18.2,37.7 L22.1,36.7 C22.7,39.4 22.5,41.8 21.5,43.9 C20.4,46 18.7,47.6 16.3,48.5 C13.3,49.7 10.5,49.8 7.8,48.5 C5.2,47.3 3.1,44.8 1.6,41.2 C0.6,38.8 0.2,36.6 0.2,34.5 C0.3,32.4 0.9,30.6 2.1,29 C3.3,27.4 4.9,26.3 6.8,25.5 C9.2,24.5 11.4,24.3 13.4,24.9 C15.4,25.5 17.1,26.8 18.4,28.8 L15,30.9 C14,29.6 13,28.7 11.8,28.3 C10.6,27.9 9.4,28 8.2,28.5 C6.3,29.3 5.1,30.6 4.5,32.4 C3.9,34.2 4.2,36.6 5.4,39.5 C6.6,42.5 8.1,44.4 9.7,45.2 C11.3,46 13.1,46.1 15,45.4 C16.5,44.8 17.5,43.8 18.1,42.5 C18.7,41.2 18.7,39.6 18.2,37.7 Z" id="Path"></path>
                    <path d="M22.4,32.5 C20.7,28.4 20.6,24.9 22.1,22.1 C23.3,19.7 25.3,17.9 28,16.8 C31,15.6 33.9,15.5 36.6,16.7 C39.3,17.9 41.4,20.2 42.9,23.7 C44.1,26.5 44.6,28.9 44.4,30.9 C44.2,32.9 43.5,34.6 42.2,36.2 C40.9,37.8 39.4,38.9 37.4,39.7 C34.3,41 31.4,41 28.7,39.8 C26.1,38.7 24,36.2 22.4,32.5 Z M26.3,30.9 C27.5,33.7 28.9,35.6 30.7,36.5 C32.5,37.4 34.3,37.5 36.2,36.7 C38,35.9 39.3,34.6 39.9,32.7 C40.5,30.8 40.3,28.4 39.1,25.5 C38,22.8 36.5,21 34.7,20.1 C32.9,19.2 31.1,19.1 29.2,19.9 C27.3,20.7 26.1,22 25.4,23.9 C24.9,25.7 25.1,28.1 26.3,30.9 Z" id="Shape"></path>
                    <path d="M51.9,33.2 L42.8,11.2 L46.1,9.8 L47.4,12.9 C47.6,11.5 48.2,10.3 49.1,9.2 C50,8.1 51.1,7.2 52.6,6.6 C54.2,5.9 55.7,5.7 57,6 C58.3,6.2 59.4,6.9 60.4,7.9 C61.1,4.6 62.8,2.4 65.6,1.2 C67.8,0.3 69.7,0.2 71.4,0.9 C73.1,1.6 74.4,3.2 75.5,5.8 L81.7,20.9 L78,22.4 L72.3,8.5 C71.7,7 71.1,6 70.6,5.4 C70.1,4.8 69.4,4.5 68.6,4.4 C67.8,4.3 67,4.4 66.1,4.7 C64.6,5.3 63.5,6.4 62.9,7.8 C62.3,9.3 62.5,11.1 63.4,13.4 L68.7,26.2 L65,27.7 L59.1,13.4 C58.4,11.7 57.6,10.6 56.7,10 C55.8,9.4 54.6,9.4 53.2,10 C52.2,10.4 51.3,11.1 50.6,12 C49.9,12.9 49.6,14 49.7,15.2 C49.7,16.4 50.2,18 51,20 L55.7,31.4 L51.9,33.2 Z" id="Path"></path>
                </g>
            </g>
        </g>
    </g>
</svg>